<?xml version="1.0" encoding="UTF-8" standalone="no"?>
<!DOCTYPE svg PUBLIC "-//W3C//DTD SVG 1.1//EN"
 "http://www.w3.org/Graphics/SVG/1.1/DTD/svg11.dtd">
<!-- Generated by graphviz version 2.43.0 (0)
 -->
<!-- Title: Collision Pages: 1 -->
<svg width="274pt" height="247pt"
 viewBox="0.00 0.00 274.00 247.00" xmlns="http://www.w3.org/2000/svg" xmlns:xlink="http://www.w3.org/1999/xlink">
<g id="graph0" class="graph" transform="scale(1 1) rotate(0) translate(4 243)">
<title>Collision</title>
<!-- Node1 -->
<g id="Node000001" class="node">
<title>Node1</title>
<g id="a_Node000001"><a xlink:title="abstract class to handle various collision operators with polymorphism">
<polygon fill="#999999" stroke="transparent" points="195,-239 71,-239 71,-130 195,-130 195,-239"/>
<text text-anchor="start" x="111.5" y="-226.5" font-family="Helvetica,sans-Serif" font-size="10.00">Collision</text>
<text text-anchor="start" x="131" y="-211.5" font-family="Helvetica,sans-Serif" font-size="10.00"> </text>
<text text-anchor="start" x="75" y="-196.5" font-family="Helvetica,sans-Serif" font-size="10.00">+</text>
<text text-anchor="start" x="88" y="-196.5" font-family="Helvetica,sans-Serif" font-size="10.00">Collision()</text>
<text text-anchor="start" x="75" y="-181.5" font-family="Helvetica,sans-Serif" font-size="10.00">+</text>
<text text-anchor="start" x="88" y="-181.5" font-family="Helvetica,sans-Serif" font-size="10.00">λ_star()</text>
<text text-anchor="start" x="75" y="-166.5" font-family="Helvetica,sans-Serif" font-size="10.00">+</text>
<text text-anchor="start" x="88" y="-166.5" font-family="Helvetica,sans-Serif" font-size="10.00">distribution_update()</text>
<text text-anchor="start" x="75" y="-151.5" font-family="Helvetica,sans-Serif" font-size="10.00">+</text>
<text text-anchor="start" x="88" y="-151.5" font-family="Helvetica,sans-Serif" font-size="10.00">~Collision()</text>
<text text-anchor="start" x="75" y="-136.5" font-family="Helvetica,sans-Serif" font-size="10.00">+</text>
<text text-anchor="start" x="88" y="-136.5" font-family="Helvetica,sans-Serif" font-size="10.00">name()</text>
<polygon fill="#666666" stroke="#666666" points="71,-221.5 71,-221.5 195,-221.5 195,-221.5 71,-221.5"/>
<polygon fill="#666666" stroke="#666666" points="71,-206.5 71,-206.5 195,-206.5 195,-206.5 71,-206.5"/>
<polygon fill="none" stroke="#666666" points="71,-130 71,-239 195,-239 195,-130 71,-130"/>
</a>
</g>
</g>
<!-- Node2 -->
<g id="Node000002" class="node">
<title>Node2</title>
<g id="a_Node000002"><a xlink:href="classBGK.html" target="_top" xlink:title="class for the BGK collision operators, inherits form Collision">
<polygon fill="white" stroke="transparent" points="124,-94 0,-94 0,0 124,0 124,-94"/>
<text text-anchor="start" x="51" y="-82" font-family="Helvetica,sans-Serif" font-size="10.00">BGK</text>
<text text-anchor="start" x="60" y="-67" font-family="Helvetica,sans-Serif" font-size="10.00"> </text>
<text text-anchor="start" x="4" y="-52" font-family="Helvetica,sans-Serif" font-size="10.00">+</text>
<text text-anchor="start" x="17" y="-52" font-family="Helvetica,sans-Serif" font-size="10.00">BGK()</text>
<text text-anchor="start" x="4" y="-37" font-family="Helvetica,sans-Serif" font-size="10.00">+</text>
<text text-anchor="start" x="17" y="-37" font-family="Helvetica,sans-Serif" font-size="10.00">λ_star()</text>
<text text-anchor="start" x="4" y="-22" font-family="Helvetica,sans-Serif" font-size="10.00">+</text>
<text text-anchor="start" x="17" y="-22" font-family="Helvetica,sans-Serif" font-size="10.00">name()</text>
<text text-anchor="start" x="4" y="-7" font-family="Helvetica,sans-Serif" font-size="10.00">+</text>
<text text-anchor="start" x="17" y="-7" font-family="Helvetica,sans-Serif" font-size="10.00">distribution_update()</text>
<polygon fill="#666666" stroke="#666666" points="0,-77 0,-77 124,-77 124,-77 0,-77"/>
<polygon fill="#666666" stroke="#666666" points="0,-62 0,-62 124,-62 124,-62 0,-62"/>
<polygon fill="none" stroke="#666666" points="0,0 0,-94 124,-94 124,0 0,0"/>
</a>
</g>
</g>
<!-- Node1&#45;&gt;Node2 -->
<g id="edge1_Node000001_Node000002" class="edge">
<title>Node1&#45;&gt;Node2</title>
<g id="a_edge1_Node000001_Node000002"><a xlink:title=" ">
<path fill="none" stroke="#63b8ff" d="M100.24,-120.98C95.51,-111.95 90.71,-102.79 86.19,-94.16"/>
<polygon fill="none" stroke="#63b8ff" points="97.2,-122.71 104.94,-129.95 103.4,-119.46 97.2,-122.71"/>
</a>
</g>
</g>
<!-- Node3 -->
<g id="Node000003" class="node">
<title>Node3</title>
<g id="a_Node000003"><a xlink:href="classFockerPlank.html" target="_top" xlink:title=" ">
<polygon fill="white" stroke="transparent" points="266,-94 142,-94 142,0 266,0 266,-94"/>
<text text-anchor="start" x="174.5" y="-82" font-family="Helvetica,sans-Serif" font-size="10.00">FockerPlank</text>
<text text-anchor="start" x="202" y="-67" font-family="Helvetica,sans-Serif" font-size="10.00"> </text>
<text text-anchor="start" x="146" y="-52" font-family="Helvetica,sans-Serif" font-size="10.00">+</text>
<text text-anchor="start" x="159" y="-52" font-family="Helvetica,sans-Serif" font-size="10.00">FockerPlank()</text>
<text text-anchor="start" x="146" y="-37" font-family="Helvetica,sans-Serif" font-size="10.00">+</text>
<text text-anchor="start" x="159" y="-37" font-family="Helvetica,sans-Serif" font-size="10.00">λ_star()</text>
<text text-anchor="start" x="146" y="-22" font-family="Helvetica,sans-Serif" font-size="10.00">+</text>
<text text-anchor="start" x="159" y="-22" font-family="Helvetica,sans-Serif" font-size="10.00">name()</text>
<text text-anchor="start" x="146" y="-7" font-family="Helvetica,sans-Serif" font-size="10.00">+</text>
<text text-anchor="start" x="159" y="-7" font-family="Helvetica,sans-Serif" font-size="10.00">distribution_update()</text>
<polygon fill="#666666" stroke="#666666" points="142,-77 142,-77 266,-77 266,-77 142,-77"/>
<polygon fill="#666666" stroke="#666666" points="142,-62 142,-62 266,-62 266,-62 142,-62"/>
<polygon fill="none" stroke="#666666" points="142,0 142,-94 266,-94 266,0 142,0"/>
</a>
</g>
</g>
<!-- Node1&#45;&gt;Node3 -->
<g id="edge2_Node000001_Node000003" class="edge">
<title>Node1&#45;&gt;Node3</title>
<g id="a_edge2_Node000001_Node000003"><a xlink:title=" ">
<path fill="none" stroke="#63b8ff" d="M165.76,-120.98C170.49,-111.95 175.29,-102.79 179.81,-94.16"/>
<polygon fill="none" stroke="#63b8ff" points="162.6,-119.46 161.06,-129.95 168.8,-122.71 162.6,-119.46"/>
</a>
</g>
</g>
</g>
</svg>
