<?xml version="1.0" encoding="UTF-8" standalone="no"?>
<!DOCTYPE svg PUBLIC "-//W3C//DTD SVG 1.1//EN"
 "http://www.w3.org/Graphics/SVG/1.1/DTD/svg11.dtd">
<!-- Generated by graphviz version 2.43.0 (0)
 -->
<!-- Title: Graphical Class Hierarchy Pages: 1 -->
<svg width="178pt" height="64pt"
 viewBox="0.00 0.00 178.00 64.00" xmlns="http://www.w3.org/2000/svg" xmlns:xlink="http://www.w3.org/1999/xlink">
<g id="graph0" class="graph" transform="scale(1 1) rotate(0) translate(4 60)">
<title>Graphical Class Hierarchy</title>
<!-- Node0 -->
<g id="Node000000" class="node">
<title>Node0</title>
<g id="a_Node000000"><a xlink:href="classCollision.html" target="_top" xlink:title="abstract class to handle various collision operators with polymorphism">
<polygon fill="white" stroke="#666666" points="59,-37 0,-37 0,-18 59,-18 59,-37"/>
<text text-anchor="middle" x="29.5" y="-25" font-family="Helvetica,sans-Serif" font-size="10.00">Collision</text>
</a>
</g>
</g>
<!-- Node1 -->
<g id="Node000001" class="node">
<title>Node1</title>
<g id="a_Node000001"><a xlink:href="classBGK.html" target="_top" xlink:title="class for the BGK collision operators, inherits form Collision">
<polygon fill="white" stroke="#666666" points="151.5,-56 113.5,-56 113.5,-37 151.5,-37 151.5,-56"/>
<text text-anchor="middle" x="132.5" y="-44" font-family="Helvetica,sans-Serif" font-size="10.00">BGK</text>
</a>
</g>
</g>
<!-- Node0&#45;&gt;Node1 -->
<g id="edge1_Node000000_Node000001" class="edge">
<title>Node0&#45;&gt;Node1</title>
<g id="a_edge1_Node000000_Node000001"><a xlink:title=" ">
<path fill="none" stroke="#63b8ff" d="M69.33,-34.8C84.44,-37.65 101.03,-40.77 113.26,-43.07"/>
<polygon fill="#63b8ff" stroke="#63b8ff" points="69.65,-31.3 59.17,-32.89 68.35,-38.18 69.65,-31.3"/>
</a>
</g>
</g>
<!-- Node2 -->
<g id="Node000002" class="node">
<title>Node2</title>
<g id="a_Node000002"><a xlink:href="classFockerPlank.html" target="_top" xlink:title=" ">
<polygon fill="white" stroke="#666666" points="170,-19 95,-19 95,0 170,0 170,-19"/>
<text text-anchor="middle" x="132.5" y="-7" font-family="Helvetica,sans-Serif" font-size="10.00">FockerPlank</text>
</a>
</g>
</g>
<!-- Node0&#45;&gt;Node2 -->
<g id="edge2_Node000000_Node000002" class="edge">
<title>Node0&#45;&gt;Node2</title>
<g id="a_edge2_Node000000_Node000002"><a xlink:title=" ">
<path fill="none" stroke="#63b8ff" d="M69.15,-20.61C77.57,-19.11 86.46,-17.53 94.81,-16.04"/>
<polygon fill="#63b8ff" stroke="#63b8ff" points="68.4,-17.19 59.17,-22.39 69.63,-24.08 68.4,-17.19"/>
</a>
</g>
</g>
</g>
</svg>
