<?xml version="1.0" encoding="UTF-8" standalone="no"?>
<!DOCTYPE svg PUBLIC "-//W3C//DTD SVG 1.1//EN"
 "http://www.w3.org/Graphics/SVG/1.1/DTD/svg11.dtd">
<!-- Generated by graphviz version 14.0.5 (20251129.0259)
 -->
<!-- Title: FockerPlank Pages: 1 -->
<svg width="114pt" height="250pt"
 viewBox="0.00 0.00 114.00 250.00" xmlns="http://www.w3.org/2000/svg" xmlns:xlink="http://www.w3.org/1999/xlink">
<g id="graph0" class="graph" transform="scale(1 1) rotate(0) translate(4 246.25)">
<title>FockerPlank</title>
<!-- Node1 -->
<g id="Node000001" class="node">
<title>Node1</title>
<g id="a_Node000001"><a xlink:title=" ">
<polygon fill="#999999" stroke="none" points="105.75,-95.5 0,-95.5 0,0 105.75,0 105.75,-95.5"/>
<text xml:space="preserve" text-anchor="start" x="25.5" y="-82" font-family="Helvetica,sans-Serif" font-size="10.00">FockerPlank</text>
<text xml:space="preserve" text-anchor="start" x="51.38" y="-66.75" font-family="Helvetica,sans-Serif" font-size="10.00"> </text>
<text xml:space="preserve" text-anchor="start" x="4" y="-51.5" font-family="Helvetica,sans-Serif" font-size="10.00">+</text>
<text xml:space="preserve" text-anchor="start" x="14" y="-51.5" font-family="Helvetica,sans-Serif" font-size="10.00">FockerPlank()</text>
<text xml:space="preserve" text-anchor="start" x="4" y="-36.25" font-family="Helvetica,sans-Serif" font-size="10.00">+</text>
<text xml:space="preserve" text-anchor="start" x="14" y="-36.25" font-family="Helvetica,sans-Serif" font-size="10.00">λ_star()</text>
<text xml:space="preserve" text-anchor="start" x="4" y="-21" font-family="Helvetica,sans-Serif" font-size="10.00">+</text>
<text xml:space="preserve" text-anchor="start" x="14" y="-21" font-family="Helvetica,sans-Serif" font-size="10.00">name()</text>
<text xml:space="preserve" text-anchor="start" x="4" y="-5.75" font-family="Helvetica,sans-Serif" font-size="10.00">+</text>
<text xml:space="preserve" text-anchor="start" x="14" y="-5.75" font-family="Helvetica,sans-Serif" font-size="10.00">distribution_update()</text>
<polygon fill="#666666" stroke="#666666" points="0,-78.25 0,-78.25 105.75,-78.25 105.75,-78.25 0,-78.25"/>
<polygon fill="#666666" stroke="#666666" points="0,-63 0,-63 105.75,-63 105.75,-63 0,-63"/>
<polygon fill="none" stroke="#666666" points="0,0 0,-95.5 105.75,-95.5 105.75,0 0,0"/>
</a>
</g>
</g>
<!-- Node2 -->
<g id="Node000002" class="node">
<title>Node2</title>
<g id="a_Node000002"><a xlink:href="class_collision.html" target="_top" xlink:title="abstract class to handle various collision operators with polymorphism">
<polygon fill="white" stroke="none" points="105.75,-242.25 0,-242.25 0,-131.5 105.75,-131.5 105.75,-242.25"/>
<text xml:space="preserve" text-anchor="start" x="34.12" y="-228.75" font-family="Helvetica,sans-Serif" font-size="10.00">Collision</text>
<text xml:space="preserve" text-anchor="start" x="51.38" y="-213.5" font-family="Helvetica,sans-Serif" font-size="10.00"> </text>
<text xml:space="preserve" text-anchor="start" x="4" y="-198.25" font-family="Helvetica,sans-Serif" font-size="10.00">+</text>
<text xml:space="preserve" text-anchor="start" x="14" y="-198.25" font-family="Helvetica,sans-Serif" font-size="10.00">Collision()</text>
<text xml:space="preserve" text-anchor="start" x="4" y="-183" font-family="Helvetica,sans-Serif" font-size="10.00">+</text>
<text xml:space="preserve" text-anchor="start" x="14" y="-183" font-family="Helvetica,sans-Serif" font-size="10.00">λ_star()</text>
<text xml:space="preserve" text-anchor="start" x="4" y="-167.75" font-family="Helvetica,sans-Serif" font-size="10.00">+</text>
<text xml:space="preserve" text-anchor="start" x="14" y="-167.75" font-family="Helvetica,sans-Serif" font-size="10.00">distribution_update()</text>
<text xml:space="preserve" text-anchor="start" x="4" y="-152.5" font-family="Helvetica,sans-Serif" font-size="10.00">+</text>
<text xml:space="preserve" text-anchor="start" x="14" y="-152.5" font-family="Helvetica,sans-Serif" font-size="10.00">~Collision()</text>
<text xml:space="preserve" text-anchor="start" x="4" y="-137.25" font-family="Helvetica,sans-Serif" font-size="10.00">+</text>
<text xml:space="preserve" text-anchor="start" x="14" y="-137.25" font-family="Helvetica,sans-Serif" font-size="10.00">name()</text>
<polygon fill="#666666" stroke="#666666" points="0,-225 0,-225 105.75,-225 105.75,-225 0,-225"/>
<polygon fill="#666666" stroke="#666666" points="0,-209.75 0,-209.75 105.75,-209.75 105.75,-209.75 0,-209.75"/>
<polygon fill="none" stroke="#666666" points="0,-131.5 0,-242.25 105.75,-242.25 105.75,-131.5 0,-131.5"/>
</a>
</g>
</g>
<!-- Node2&#45;&gt;Node1 -->
<g id="edge1_Node000001_Node000002" class="edge">
<title>Node2&#45;&gt;Node1</title>
<g id="a_edge1_Node000001_Node000002"><a xlink:title=" ">
<path fill="none" stroke="#63b8ff" d="M52.88,-120.32C52.88,-111.92 52.88,-103.47 52.88,-95.46"/>
<polygon fill="none" stroke="#63b8ff" points="49.38,-120.17 52.88,-130.17 56.38,-120.17 49.38,-120.17"/>
</a>
</g>
</g>
</g>
</svg>
