<?xml version="1.0" encoding="UTF-8" standalone="no"?>
<!DOCTYPE svg PUBLIC "-//W3C//DTD SVG 1.1//EN"
 "http://www.w3.org/Graphics/SVG/1.1/DTD/svg11.dtd">
<!-- Generated by graphviz version 14.0.5 (20251129.0259)
 -->
<!-- Title: Collision Pages: 1 -->
<svg width="238pt" height="250pt"
 viewBox="0.00 0.00 238.00 250.00" xmlns="http://www.w3.org/2000/svg" xmlns:xlink="http://www.w3.org/1999/xlink">
<g id="graph0" class="graph" transform="scale(1 1) rotate(0) translate(4 246.25)">
<title>Collision</title>
<!-- Node1 -->
<g id="Node000001" class="node">
<title>Node1</title>
<g id="a_Node000001"><a xlink:title="abstract class to handle various collision operators with polymorphism">
<polygon fill="#999999" stroke="none" points="167.75,-242.25 62,-242.25 62,-131.5 167.75,-131.5 167.75,-242.25"/>
<text xml:space="preserve" text-anchor="start" x="96.12" y="-228.75" font-family="Helvetica,sans-Serif" font-size="10.00">Collision</text>
<text xml:space="preserve" text-anchor="start" x="113.38" y="-213.5" font-family="Helvetica,sans-Serif" font-size="10.00"> </text>
<text xml:space="preserve" text-anchor="start" x="66" y="-198.25" font-family="Helvetica,sans-Serif" font-size="10.00">+</text>
<text xml:space="preserve" text-anchor="start" x="76" y="-198.25" font-family="Helvetica,sans-Serif" font-size="10.00">Collision()</text>
<text xml:space="preserve" text-anchor="start" x="66" y="-183" font-family="Helvetica,sans-Serif" font-size="10.00">+</text>
<text xml:space="preserve" text-anchor="start" x="76" y="-183" font-family="Helvetica,sans-Serif" font-size="10.00">λ_star()</text>
<text xml:space="preserve" text-anchor="start" x="66" y="-167.75" font-family="Helvetica,sans-Serif" font-size="10.00">+</text>
<text xml:space="preserve" text-anchor="start" x="76" y="-167.75" font-family="Helvetica,sans-Serif" font-size="10.00">distribution_update()</text>
<text xml:space="preserve" text-anchor="start" x="66" y="-152.5" font-family="Helvetica,sans-Serif" font-size="10.00">+</text>
<text xml:space="preserve" text-anchor="start" x="76" y="-152.5" font-family="Helvetica,sans-Serif" font-size="10.00">~Collision()</text>
<text xml:space="preserve" text-anchor="start" x="66" y="-137.25" font-family="Helvetica,sans-Serif" font-size="10.00">+</text>
<text xml:space="preserve" text-anchor="start" x="76" y="-137.25" font-family="Helvetica,sans-Serif" font-size="10.00">name()</text>
<polygon fill="#666666" stroke="#666666" points="62,-225 62,-225 167.75,-225 167.75,-225 62,-225"/>
<polygon fill="#666666" stroke="#666666" points="62,-209.75 62,-209.75 167.75,-209.75 167.75,-209.75 62,-209.75"/>
<polygon fill="none" stroke="#666666" points="62,-131.5 62,-242.25 167.75,-242.25 167.75,-131.5 62,-131.5"/>
</a>
</g>
</g>
<!-- Node2 -->
<g id="Node000002" class="node">
<title>Node2</title>
<g id="a_Node000002"><a xlink:href="class_b_g_k.html" target="_top" xlink:title="class for the BGK collision operators, inherits form Collision">
<polygon fill="white" stroke="none" points="105.75,-95.5 0,-95.5 0,0 105.75,0 105.75,-95.5"/>
<text xml:space="preserve" text-anchor="start" x="42.38" y="-82" font-family="Helvetica,sans-Serif" font-size="10.00">BGK</text>
<text xml:space="preserve" text-anchor="start" x="51.38" y="-66.75" font-family="Helvetica,sans-Serif" font-size="10.00"> </text>
<text xml:space="preserve" text-anchor="start" x="4" y="-51.5" font-family="Helvetica,sans-Serif" font-size="10.00">+</text>
<text xml:space="preserve" text-anchor="start" x="14" y="-51.5" font-family="Helvetica,sans-Serif" font-size="10.00">BGK()</text>
<text xml:space="preserve" text-anchor="start" x="4" y="-36.25" font-family="Helvetica,sans-Serif" font-size="10.00">+</text>
<text xml:space="preserve" text-anchor="start" x="14" y="-36.25" font-family="Helvetica,sans-Serif" font-size="10.00">λ_star()</text>
<text xml:space="preserve" text-anchor="start" x="4" y="-21" font-family="Helvetica,sans-Serif" font-size="10.00">+</text>
<text xml:space="preserve" text-anchor="start" x="14" y="-21" font-family="Helvetica,sans-Serif" font-size="10.00">name()</text>
<text xml:space="preserve" text-anchor="start" x="4" y="-5.75" font-family="Helvetica,sans-Serif" font-size="10.00">+</text>
<text xml:space="preserve" text-anchor="start" x="14" y="-5.75" font-family="Helvetica,sans-Serif" font-size="10.00">distribution_update()</text>
<polygon fill="#666666" stroke="#666666" points="0,-78.25 0,-78.25 105.75,-78.25 105.75,-78.25 0,-78.25"/>
<polygon fill="#666666" stroke="#666666" points="0,-63 0,-63 105.75,-63 105.75,-63 0,-63"/>
<polygon fill="none" stroke="#666666" points="0,0 0,-95.5 105.75,-95.5 105.75,0 0,0"/>
</a>
</g>
</g>
<!-- Node1&#45;&gt;Node2 -->
<g id="edge1_Node000001_Node000002" class="edge">
<title>Node1&#45;&gt;Node2</title>
<g id="a_edge1_Node000001_Node000002"><a xlink:title=" ">
<path fill="none" stroke="#63b8ff" d="M85.75,-121.46C81.79,-112.69 77.78,-103.83 74,-95.46"/>
<polygon fill="none" stroke="#63b8ff" points="82.44,-122.63 89.75,-130.3 88.82,-119.75 82.44,-122.63"/>
</a>
</g>
</g>
<!-- Node3 -->
<g id="Node000003" class="node">
<title>Node3</title>
<g id="a_Node000003"><a xlink:href="class_focker_plank.html" target="_top" xlink:title=" ">
<polygon fill="white" stroke="none" points="229.75,-95.5 124,-95.5 124,0 229.75,0 229.75,-95.5"/>
<text xml:space="preserve" text-anchor="start" x="149.5" y="-82" font-family="Helvetica,sans-Serif" font-size="10.00">FockerPlank</text>
<text xml:space="preserve" text-anchor="start" x="175.38" y="-66.75" font-family="Helvetica,sans-Serif" font-size="10.00"> </text>
<text xml:space="preserve" text-anchor="start" x="128" y="-51.5" font-family="Helvetica,sans-Serif" font-size="10.00">+</text>
<text xml:space="preserve" text-anchor="start" x="138" y="-51.5" font-family="Helvetica,sans-Serif" font-size="10.00">FockerPlank()</text>
<text xml:space="preserve" text-anchor="start" x="128" y="-36.25" font-family="Helvetica,sans-Serif" font-size="10.00">+</text>
<text xml:space="preserve" text-anchor="start" x="138" y="-36.25" font-family="Helvetica,sans-Serif" font-size="10.00">λ_star()</text>
<text xml:space="preserve" text-anchor="start" x="128" y="-21" font-family="Helvetica,sans-Serif" font-size="10.00">+</text>
<text xml:space="preserve" text-anchor="start" x="138" y="-21" font-family="Helvetica,sans-Serif" font-size="10.00">name()</text>
<text xml:space="preserve" text-anchor="start" x="128" y="-5.75" font-family="Helvetica,sans-Serif" font-size="10.00">+</text>
<text xml:space="preserve" text-anchor="start" x="138" y="-5.75" font-family="Helvetica,sans-Serif" font-size="10.00">distribution_update()</text>
<polygon fill="#666666" stroke="#666666" points="124,-78.25 124,-78.25 229.75,-78.25 229.75,-78.25 124,-78.25"/>
<polygon fill="#666666" stroke="#666666" points="124,-63 124,-63 229.75,-63 229.75,-63 124,-63"/>
<polygon fill="none" stroke="#666666" points="124,0 124,-95.5 229.75,-95.5 229.75,0 124,0"/>
</a>
</g>
</g>
<!-- Node1&#45;&gt;Node3 -->
<g id="edge2_Node000001_Node000003" class="edge">
<title>Node1&#45;&gt;Node3</title>
<g id="a_edge2_Node000001_Node000003"><a xlink:title=" ">
<path fill="none" stroke="#63b8ff" d="M144,-121.46C147.96,-112.69 151.97,-103.83 155.75,-95.46"/>
<polygon fill="none" stroke="#63b8ff" points="140.93,-119.75 140,-130.3 147.31,-122.63 140.93,-119.75"/>
</a>
</g>
</g>
</g>
</svg>
