<?xml version="1.0" encoding="UTF-8" standalone="no"?>
<!DOCTYPE svg PUBLIC "-//W3C//DTD SVG 1.1//EN"
 "http://www.w3.org/Graphics/SVG/1.1/DTD/svg11.dtd">
<!-- Generated by graphviz version 14.0.5 (20251129.0259)
 -->
<!-- Title: Graphical Class Hierarchy Pages: 1 -->
<svg width="168pt" height="64pt"
 viewBox="0.00 0.00 168.00 64.00" xmlns="http://www.w3.org/2000/svg" xmlns:xlink="http://www.w3.org/1999/xlink">
<g id="graph0" class="graph" transform="scale(1 1) rotate(0) translate(4 60.25)">
<title>Graphical Class Hierarchy</title>
<!-- Node0 -->
<g id="Node000000" class="node">
<title>Node0</title>
<g id="a_Node000000"><a xlink:href="class_collision.html" target="_top" xlink:title="abstract class to handle various collision operators with polymorphism">
<polygon fill="white" stroke="#666666" points="53.5,-37.25 0,-37.25 0,-18 53.5,-18 53.5,-37.25"/>
<text xml:space="preserve" text-anchor="middle" x="26.75" y="-23.75" font-family="Helvetica,sans-Serif" font-size="10.00">Collision</text>
</a>
</g>
</g>
<!-- Node1 -->
<g id="Node000001" class="node">
<title>Node1</title>
<g id="a_Node000001"><a xlink:href="class_b_g_k.html" target="_top" xlink:title="class for the BGK collision operators, inherits form Collision">
<polygon fill="white" stroke="#666666" points="143.38,-56.25 106.38,-56.25 106.38,-37 143.38,-37 143.38,-56.25"/>
<text xml:space="preserve" text-anchor="middle" x="124.88" y="-42.75" font-family="Helvetica,sans-Serif" font-size="10.00">BGK</text>
</a>
</g>
</g>
<!-- Node0&#45;&gt;Node1 -->
<g id="edge1_Node000000_Node000001" class="edge">
<title>Node0&#45;&gt;Node1</title>
<g id="a_edge1_Node000000_Node000001"><a xlink:title=" ">
<path fill="none" stroke="#63b8ff" d="M64.74,-34.94C78.92,-37.74 94.46,-40.81 106.05,-43.1"/>
<polygon fill="#63b8ff" stroke="#63b8ff" points="65.74,-31.57 55.25,-33.06 64.38,-38.43 65.74,-31.57"/>
</a>
</g>
</g>
<!-- Node2 -->
<g id="Node000002" class="node">
<title>Node2</title>
<g id="a_Node000002"><a xlink:href="class_focker_plank.html" target="_top" xlink:title=" ">
<polygon fill="white" stroke="#666666" points="160.25,-19.25 89.5,-19.25 89.5,0 160.25,0 160.25,-19.25"/>
<text xml:space="preserve" text-anchor="middle" x="124.88" y="-5.75" font-family="Helvetica,sans-Serif" font-size="10.00">FockerPlank</text>
</a>
</g>
</g>
<!-- Node0&#45;&gt;Node2 -->
<g id="edge2_Node000000_Node000002" class="edge">
<title>Node0&#45;&gt;Node2</title>
<g id="a_edge2_Node000000_Node000002"><a xlink:title=" ">
<path fill="none" stroke="#63b8ff" d="M65.01,-20.65C72.96,-19.16 81.32,-17.59 89.17,-16.12"/>
<polygon fill="#63b8ff" stroke="#63b8ff" points="64.44,-17.19 55.25,-22.48 65.72,-24.07 64.44,-17.19"/>
</a>
</g>
</g>
</g>
</svg>
