<?xml version="1.0" encoding="UTF-8" standalone="no"?>
<!DOCTYPE svg PUBLIC "-//W3C//DTD SVG 1.1//EN"
 "http://www.w3.org/Graphics/SVG/1.1/DTD/svg11.dtd">
<!-- Generated by graphviz version 14.0.5 (20251129.0259)
 -->
<!-- Title: Problem Pages: 1 -->
<svg width="98pt" height="496pt"
 viewBox="0.00 0.00 98.00 496.00" xmlns="http://www.w3.org/2000/svg" xmlns:xlink="http://www.w3.org/1999/xlink">
<g id="graph0" class="graph" transform="scale(1 1) rotate(0) translate(4 492.25)">
<title>Problem</title>
<!-- Node1 -->
<g id="Node000001" class="node">
<title>Node1</title>
<g id="a_Node000001"><a xlink:title="Parameters that defines a problem.">
<polygon fill="#999999" stroke="none" points="90,-232.75 0,-232.75 0,0 90,0 90,-232.75"/>
<text xml:space="preserve" text-anchor="start" x="27" y="-219.25" font-family="Helvetica,sans-Serif" font-size="10.00">Problem</text>
<text xml:space="preserve" text-anchor="start" x="4" y="-204" font-family="Helvetica,sans-Serif" font-size="10.00">+</text>
<text xml:space="preserve" text-anchor="start" x="14" y="-204" font-family="Helvetica,sans-Serif" font-size="10.00">σ_</text>
<text xml:space="preserve" text-anchor="start" x="4" y="-188.75" font-family="Helvetica,sans-Serif" font-size="10.00">+</text>
<text xml:space="preserve" text-anchor="start" x="14" y="-188.75" font-family="Helvetica,sans-Serif" font-size="10.00">eta_</text>
<text xml:space="preserve" text-anchor="start" x="4" y="-173.5" font-family="Helvetica,sans-Serif" font-size="10.00">+</text>
<text xml:space="preserve" text-anchor="start" x="14" y="-173.5" font-family="Helvetica,sans-Serif" font-size="10.00">ε_</text>
<text xml:space="preserve" text-anchor="start" x="4" y="-158.25" font-family="Helvetica,sans-Serif" font-size="10.00">+</text>
<text xml:space="preserve" text-anchor="start" x="14" y="-158.25" font-family="Helvetica,sans-Serif" font-size="10.00">A_</text>
<text xml:space="preserve" text-anchor="start" x="4" y="-143" font-family="Helvetica,sans-Serif" font-size="10.00">+</text>
<text xml:space="preserve" text-anchor="start" x="14" y="-143" font-family="Helvetica,sans-Serif" font-size="10.00">C_</text>
<text xml:space="preserve" text-anchor="start" x="4" y="-127.75" font-family="Helvetica,sans-Serif" font-size="10.00">+</text>
<text xml:space="preserve" text-anchor="start" x="14" y="-127.75" font-family="Helvetica,sans-Serif" font-size="10.00">D_</text>
<text xml:space="preserve" text-anchor="start" x="4" y="-112.5" font-family="Helvetica,sans-Serif" font-size="10.00">+</text>
<text xml:space="preserve" text-anchor="start" x="14" y="-112.5" font-family="Helvetica,sans-Serif" font-size="10.00">collision_</text>
<text xml:space="preserve" text-anchor="start" x="4" y="-97.25" font-family="Helvetica,sans-Serif" font-size="10.00">+</text>
<text xml:space="preserve" text-anchor="start" x="14" y="-97.25" font-family="Helvetica,sans-Serif" font-size="10.00">f0</text>
<text xml:space="preserve" text-anchor="start" x="4" y="-82" font-family="Helvetica,sans-Serif" font-size="10.00">+</text>
<text xml:space="preserve" text-anchor="start" x="14" y="-82" font-family="Helvetica,sans-Serif" font-size="10.00">ρ0</text>
<text xml:space="preserve" text-anchor="start" x="4" y="-66.75" font-family="Helvetica,sans-Serif" font-size="10.00">+</text>
<text xml:space="preserve" text-anchor="start" x="14" y="-66.75" font-family="Helvetica,sans-Serif" font-size="10.00">Problem()</text>
<text xml:space="preserve" text-anchor="start" x="4" y="-51.5" font-family="Helvetica,sans-Serif" font-size="10.00">+</text>
<text xml:space="preserve" text-anchor="start" x="14" y="-51.5" font-family="Helvetica,sans-Serif" font-size="10.00">export_json()</text>
<text xml:space="preserve" text-anchor="start" x="4" y="-36.25" font-family="Helvetica,sans-Serif" font-size="10.00">+</text>
<text xml:space="preserve" text-anchor="start" x="14" y="-36.25" font-family="Helvetica,sans-Serif" font-size="10.00">density_update()</text>
<text xml:space="preserve" text-anchor="start" x="4" y="-21" font-family="Helvetica,sans-Serif" font-size="10.00">+</text>
<text xml:space="preserve" text-anchor="start" x="14" y="-21" font-family="Helvetica,sans-Serif" font-size="10.00">time_step()</text>
<text xml:space="preserve" text-anchor="start" x="4" y="-5.75" font-family="Helvetica,sans-Serif" font-size="10.00">+</text>
<text xml:space="preserve" text-anchor="start" x="14" y="-5.75" font-family="Helvetica,sans-Serif" font-size="10.00">solve()</text>
<polygon fill="#666666" stroke="#666666" points="0,-215.5 0,-215.5 90,-215.5 90,-215.5 0,-215.5"/>
<polygon fill="#666666" stroke="#666666" points="0,-78.25 0,-78.25 12,-78.25 12,-78.25 0,-78.25"/>
<polygon fill="#666666" stroke="#666666" points="12,-78.25 12,-78.25 90,-78.25 90,-78.25 12,-78.25"/>
<polygon fill="none" stroke="#666666" points="0,0 0,-232.75 90,-232.75 90,0 0,0"/>
</a>
</g>
</g>
<!-- Node2 -->
<g id="Node000002" class="node">
<title>Node2</title>
<g id="a_Node000002"><a xlink:href="struct_discretization.html" target="_top" xlink:title="Gather information about time, space and velocity discretizations.">
<polygon fill="white" stroke="none" points="90,-488.25 0,-488.25 0,-286 90,-286 90,-488.25"/>
<text xml:space="preserve" text-anchor="start" x="15" y="-474.75" font-family="Helvetica,sans-Serif" font-size="10.00">Discretization</text>
<text xml:space="preserve" text-anchor="start" x="4" y="-459.5" font-family="Helvetica,sans-Serif" font-size="10.00">+</text>
<text xml:space="preserve" text-anchor="start" x="14" y="-459.5" font-family="Helvetica,sans-Serif" font-size="10.00">dt</text>
<text xml:space="preserve" text-anchor="start" x="4" y="-444.25" font-family="Helvetica,sans-Serif" font-size="10.00">+</text>
<text xml:space="preserve" text-anchor="start" x="14" y="-444.25" font-family="Helvetica,sans-Serif" font-size="10.00">Nt</text>
<text xml:space="preserve" text-anchor="start" x="4" y="-429" font-family="Helvetica,sans-Serif" font-size="10.00">+</text>
<text xml:space="preserve" text-anchor="start" x="14" y="-429" font-family="Helvetica,sans-Serif" font-size="10.00">V</text>
<text xml:space="preserve" text-anchor="start" x="4" y="-413.75" font-family="Helvetica,sans-Serif" font-size="10.00">+</text>
<text xml:space="preserve" text-anchor="start" x="14" y="-413.75" font-family="Helvetica,sans-Serif" font-size="10.00">N</text>
<text xml:space="preserve" text-anchor="start" x="4" y="-398.5" font-family="Helvetica,sans-Serif" font-size="10.00">+</text>
<text xml:space="preserve" text-anchor="start" x="14" y="-398.5" font-family="Helvetica,sans-Serif" font-size="10.00">normV2</text>
<text xml:space="preserve" text-anchor="start" x="4" y="-383.25" font-family="Helvetica,sans-Serif" font-size="10.00">+</text>
<text xml:space="preserve" text-anchor="start" x="14" y="-383.25" font-family="Helvetica,sans-Serif" font-size="10.00">L</text>
<text xml:space="preserve" text-anchor="start" x="4" y="-368" font-family="Helvetica,sans-Serif" font-size="10.00">+</text>
<text xml:space="preserve" text-anchor="start" x="14" y="-368" font-family="Helvetica,sans-Serif" font-size="10.00">Nx</text>
<text xml:space="preserve" text-anchor="start" x="4" y="-352.75" font-family="Helvetica,sans-Serif" font-size="10.00">+</text>
<text xml:space="preserve" text-anchor="start" x="14" y="-352.75" font-family="Helvetica,sans-Serif" font-size="10.00">dx</text>
<text xml:space="preserve" text-anchor="start" x="4" y="-337.5" font-family="Helvetica,sans-Serif" font-size="10.00">+</text>
<text xml:space="preserve" text-anchor="start" x="14" y="-337.5" font-family="Helvetica,sans-Serif" font-size="10.00">X</text>
<text xml:space="preserve" text-anchor="start" x="4" y="-322.25" font-family="Helvetica,sans-Serif" font-size="10.00">+</text>
<text xml:space="preserve" text-anchor="start" x="14" y="-322.25" font-family="Helvetica,sans-Serif" font-size="10.00">Discretization()</text>
<text xml:space="preserve" text-anchor="start" x="4" y="-307" font-family="Helvetica,sans-Serif" font-size="10.00">+</text>
<text xml:space="preserve" text-anchor="start" x="14" y="-307" font-family="Helvetica,sans-Serif" font-size="10.00">to_json()</text>
<text xml:space="preserve" text-anchor="start" x="4" y="-291.75" font-family="Helvetica,sans-Serif" font-size="10.00">+</text>
<text xml:space="preserve" text-anchor="start" x="14" y="-291.75" font-family="Helvetica,sans-Serif" font-size="10.00">~Discretization()</text>
<polygon fill="#666666" stroke="#666666" points="0,-471 0,-471 90,-471 90,-471 0,-471"/>
<polygon fill="#666666" stroke="#666666" points="0,-333.75 0,-333.75 12,-333.75 12,-333.75 0,-333.75"/>
<polygon fill="#666666" stroke="#666666" points="12,-333.75 12,-333.75 90,-333.75 90,-333.75 12,-333.75"/>
<polygon fill="none" stroke="#666666" points="0,-286 0,-488.25 90,-488.25 90,-286 0,-286"/>
</a>
</g>
</g>
<!-- Node2&#45;&gt;Node1 -->
<g id="edge1_Node000001_Node000002" class="edge">
<title>Node2&#45;&gt;Node1</title>
<g id="a_edge1_Node000001_Node000002"><a xlink:title=" ">
<path fill="none" stroke="#63b8ff" d="M45,-286.05C45,-272.82 45,-259.11 45,-245.49"/>
<polygon fill="none" stroke="#63b8ff" points="45,-245.38 41,-239.38 45,-233.38 49,-239.38 45,-245.38"/>
</a>
</g>
<text xml:space="preserve" text-anchor="start" x="48" y="-255.5" font-family="Helvetica,sans-Serif" font-size="10.00" fill="grey">+δ_</text>
</g>
</g>
</svg>
